# xmcd CD database file
#
# Track frame offsets:
#	200
#	9445
#	20470
#	29895
#	38385
#	56452
#	65152
#	71500
#	77500
#	83515
#	94480
#	101975
#	112395
#	126297
#	134350
#	147037
#	170395
#	181820
#	188895
#	211722
#
# Disc length: 3995 seconds
#
# Revision: 0
# Processed by: cddbd v1.5.1PL2 Copyright (c) Steve Scherf et al.
# Submitted via: CDex 1.51
#
DISCID=160f9914
DTITLE=Brass Akademie Berlin - Ein Engelskonzert
DYEAR=1990
DGENRE=Jazz
TTITLE0=Louis Claude Daquin - Noels 1
TTITLE1=Louis Claude Daquin - Noels 2
TTITLE2=Trad. Cuatro Cancones de Navidad 1
TTITLE3=Trad. Cuatro Cancones de Navidad 2
TTITLE4=Trad. Cuatro Cancones de Navidad 3
TTITLE5=Trad. Cuatro Cancones de Navidad 4
TTITLE6=J S Bach - Arnstädter Weihnachtschoröle 1
TTITLE7=J S Bach - Arnstädter Weihnachtschoröle 2
TTITLE8=J S Bach - Arnstädter Weihnachtschoröle 3
TTITLE9=J S Bach - Arnstädter Weihnachtschoröle 4
TTITLE10=Trad. Stille Nacht
TTITLE11=Trad. A tribute to the Christmas tree
TTITLE12=R Carmichael - A quiet place
TTITLE13=PI Tchaikovski - Nussknacker - Ouverture
TTITLE14=PI Tchaikovski - Nussknacker - Marsch
TTITLE15=PI Tchaikovski - Nussknacker - Mehr oder weniger ein Blumenwalzer
TTITLE16=M Reger - Mariae Wiegenlied
TTITLE17=JS Bach - Badinerie
TTITLE18=F Manfredini - Pastorale
TTITLE19=D Brown - Das Engelskonzert
EXTD=YEAR: 1990
EXTT0=
EXTT1=
EXTT2=
EXTT3=
EXTT4=
EXTT5=
EXTT6=
EXTT7=
EXTT8=
EXTT9=
EXTT10=
EXTT11=
EXTT12=
EXTT13=
EXTT14=
EXTT15=
EXTT16=
EXTT17=
EXTT18=
EXTT19=
PLAYORDER=
